<?xml version="1.0" encoding="utf-8"?>
<!-- Svg Vector Icons : http://www.onlinewebfonts.com/icon -->
<!DOCTYPE svg PUBLIC "-//W3C//DTD SVG 1.1//EN" "http://www.w3.org/Graphics/SVG/1.1/DTD/svg11.dtd">
<svg version="1.1" xmlns="http://www.w3.org/2000/svg" xmlns:xlink="http://www.w3.org/1999/xlink" x="0px" y="0px" viewBox="0 0 1000 1000" enable-background="new 0 0 1000 1000" xml:space="preserve">
<metadata> Svg Vector Icons : http://www.onlinewebfonts.com/icon </metadata>
<g><g><path d="M491.4,638.9c0-17.6-11.6-26.6-34.4-26.8c-7.1,0-12.7,0.5-16.4,1v53.2h17.3C478.5,666.3,491.4,655.8,491.4,638.9z"/><path d="M274.9,851.7v89.6h441.5v-89.6C873.6,790.4,981.3,665.8,981.3,522H10C10,665.9,117.7,790.4,274.9,851.7z M397.9,731.2h8.6V622.5h-8.6v-39.3h57.5c25.6,0,42.3,4.8,54.3,15.7c10,8.9,15.6,22.2,15.6,37.4c0,19.8-9.7,36.2-26.6,45.5c11,9.4,24.9,33.9,24.9,33.9l8.2,12.9l27.4-42.4l42.7,0V714h-23.5l-27.2,38.5l28.9,42.5h21.8v11.5v16.3h-42.8l-20.1-30.8c-3.2-4.6-6-9.2-8.8-13.9c-1.7,2.9-3.5,5.7-5.4,8.7l-3.2,5.1l-19.8,30.9h-41.2v-27.9H482l29.1-41.8l-35.9-51.9c-4.9-4.7-9.2-6.1-19.5-6.5h-15.2v75.6l-42.6,0.1L397.9,731.2L397.9,731.2z"/><polygon points="913.7,260.3 779,166.8 533.4,472.9 787.1,472.9 "/><polygon points="990,155.9 850.1,58.8 807.5,136.7 931.9,223 "/></g></g>
</svg>